<svg width="205" height="50" viewBox="0 0 205 50" fill="none" xmlns="http://www.w3.org/2000/svg">
<path d="M13.8957 29.1665H8.33317C6.0415 29.1665 4.1665 31.0415 4.1665 33.3332V43.7498C4.1665 44.8957 5.104 45.8332 6.24984 45.8332H13.8957C15.0415 45.8332 15.979 44.8957 15.979 43.7498V31.2498C15.979 30.104 15.0415 29.1665 13.8957 29.1665Z" fill="#B5E6AC"/>
<path d="M27.7712 20.8335H22.2087C19.917 20.8335 18.042 22.7085 18.042 25.0002V43.7502C18.042 44.896 18.9795 45.8335 20.1253 45.8335H29.8545C31.0003 45.8335 31.9378 44.896 31.9378 43.7502V25.0002C31.9378 22.7085 30.0837 20.8335 27.7712 20.8335Z" fill="#B5E6AC"/>
<path d="M41.6668 35.4165H36.1043C34.9585 35.4165 34.021 36.354 34.021 37.4998V43.7498C34.021 44.8957 34.9585 45.8332 36.1043 45.8332H43.7502C44.896 45.8332 45.8335 44.8957 45.8335 43.7498V39.5832C45.8335 37.2915 43.9585 35.4165 41.6668 35.4165Z" fill="#B5E6AC"/>
<path d="M31.2707 10.1043C31.9165 9.4585 32.1665 8.68766 31.9582 8.021C31.7498 7.35433 31.104 6.87516 30.1873 6.72933L28.1873 6.396C28.104 6.396 27.9165 6.25016 27.8748 6.16683L26.7707 3.9585C25.9373 2.271 24.0415 2.271 23.2082 3.9585L22.104 6.16683C22.0832 6.25016 21.8957 6.396 21.8123 6.396L19.8123 6.72933C18.8957 6.87516 18.2707 7.35433 18.0415 8.021C17.8332 8.68766 18.0832 9.4585 18.729 10.1043L20.2707 11.6668C20.354 11.7293 20.4165 11.9793 20.3957 12.0627L19.9582 13.9793C19.6248 15.4168 20.1665 16.0627 20.5207 16.3127C20.8748 16.5627 21.6457 16.896 22.9165 16.146L24.7915 15.0418C24.8748 14.9793 25.1457 14.9793 25.229 15.0418L27.0832 16.146C27.6665 16.5002 28.1457 16.6043 28.5207 16.6043C28.9582 16.6043 29.2707 16.4377 29.4582 16.3127C29.8123 16.0627 30.354 15.4168 30.0207 13.9793L29.5832 12.0627C29.5623 11.9585 29.6248 11.7293 29.7082 11.6668L31.2707 10.1043Z" fill="#B5E6AC"/>
<path d="M70.9256 34V16.2495H77.3257C78.9591 16.2495 80.2592 16.7245 81.2259 17.6745C82.2092 18.6079 82.7009 19.8162 82.7009 21.2996C82.7009 22.5497 82.3509 23.583 81.6509 24.3997C80.9675 25.1997 79.9758 25.7414 78.6758 26.0248L85.276 34H81.6759L75.1757 26.1998H73.8506V34H70.9256ZM73.8506 23.6497H76.9757C77.8424 23.6497 78.5258 23.4497 79.0258 23.0497C79.5258 22.633 79.7758 22.0496 79.7758 21.2996C79.7758 20.5496 79.5258 19.9746 79.0258 19.5746C78.5258 19.1579 77.8424 18.9495 76.9757 18.9495H73.8506V23.6497ZM91.4244 34.25C89.7244 34.25 88.291 33.6167 87.1243 32.35C85.9743 31.0832 85.3992 29.5499 85.3992 27.7498C85.3992 25.9498 85.9743 24.4164 87.1243 23.1497C88.291 21.883 89.7244 21.2496 91.4244 21.2496C92.2744 21.2496 93.0578 21.4413 93.7745 21.8246C94.4912 22.1913 95.0412 22.6413 95.4245 23.1747V21.4996H98.1746V34H95.4245V32.3249C95.0412 32.8583 94.4912 33.3166 93.7745 33.7C93.0578 34.0667 92.2744 34.25 91.4244 34.25ZM89.2494 30.5999C89.9494 31.3666 90.8411 31.7499 91.9244 31.7499C93.0078 31.7499 93.8995 31.3666 94.5995 30.5999C95.2995 29.8332 95.6495 28.8832 95.6495 27.7498C95.6495 26.6164 95.2995 25.6664 94.5995 24.8997C93.8995 24.133 93.0078 23.7497 91.9244 23.7497C90.8411 23.7497 89.9494 24.133 89.2494 24.8997C88.5493 25.6664 88.1993 26.6164 88.1993 27.7498C88.1993 28.8832 88.5493 29.8332 89.2494 30.5999ZM101.9 34V21.4996H104.65V23.1997C105.434 21.8996 106.7 21.2496 108.451 21.2496C109.901 21.2496 111.059 21.7246 111.926 22.6747C112.792 23.6247 113.226 24.8914 113.226 26.4748V34H110.476V26.9248C110.476 25.9248 110.242 25.1497 109.776 24.5997C109.309 24.033 108.676 23.7497 107.876 23.7497C106.925 23.7497 106.15 24.108 105.55 24.8247C104.95 25.5414 104.65 26.5498 104.65 27.8498V34H101.9ZM125.47 34L119.495 27.9748V34H116.745V15.2494H119.495V26.2498L124.27 21.4996H127.745L122.17 27.0748L128.995 34H125.47ZM130.742 34V16.2495H137.142C138.775 16.2495 140.075 16.7245 141.042 17.6745C142.025 18.6079 142.517 19.8162 142.517 21.2996C142.517 22.5497 142.167 23.583 141.467 24.3997C140.784 25.1997 139.792 25.7414 138.492 26.0248L145.092 34H141.492L134.992 26.1998H133.667V34H130.742ZM133.667 23.6497H136.792C137.659 23.6497 138.342 23.4497 138.842 23.0497C139.342 22.633 139.592 22.0496 139.592 21.2996C139.592 20.5496 139.342 19.9746 138.842 19.5746C138.342 19.1579 137.659 18.9495 136.792 18.9495H133.667V23.6497ZM151.717 34.25C149.817 34.25 148.25 33.6417 147.017 32.425C145.8 31.2082 145.192 29.6499 145.192 27.7498C145.192 25.8998 145.808 24.358 147.042 23.1247C148.275 21.8746 149.833 21.2496 151.717 21.2496C153.45 21.2496 154.884 21.7996 156.017 22.8997C157.167 23.9997 157.742 25.5164 157.742 27.4498C157.742 27.7831 157.734 28.0832 157.717 28.3498H147.892C147.958 29.3665 148.35 30.1916 149.067 30.8249C149.783 31.4416 150.675 31.7499 151.742 31.7499C153.342 31.7499 154.534 31.1166 155.317 29.8499L157.417 31.3499C156.217 33.2833 154.317 34.25 151.717 34.25ZM148.017 26.3498H154.967C154.817 25.4831 154.425 24.8081 153.792 24.3247C153.175 23.8247 152.45 23.5747 151.617 23.5747C150.75 23.5747 149.975 23.8164 149.292 24.2997C148.625 24.7831 148.2 25.4664 148.017 26.3498ZM165.694 34.25C163.994 34.25 162.561 33.6167 161.394 32.35C160.244 31.0832 159.669 29.5499 159.669 27.7498C159.669 25.9498 160.244 24.4164 161.394 23.1497C162.561 21.883 163.994 21.2496 165.694 21.2496C166.544 21.2496 167.328 21.4413 168.044 21.8246C168.761 22.1913 169.311 22.6413 169.694 23.1747V21.4996H172.444V34H169.694V32.3249C169.311 32.8583 168.761 33.3166 168.044 33.7C167.328 34.0667 166.544 34.25 165.694 34.25ZM163.519 30.5999C164.219 31.3666 165.111 31.7499 166.194 31.7499C167.278 31.7499 168.169 31.3666 168.869 30.5999C169.569 29.8332 169.919 28.8832 169.919 27.7498C169.919 26.6164 169.569 25.6664 168.869 24.8997C168.169 24.133 167.278 23.7497 166.194 23.7497C165.111 23.7497 164.219 24.133 163.519 24.8997C162.819 25.6664 162.469 26.6164 162.469 27.7498C162.469 28.8832 162.819 29.8332 163.519 30.5999ZM181.295 34.25C179.595 34.25 178.162 33.6167 176.995 32.35C175.845 31.0832 175.27 29.5499 175.27 27.7498C175.27 25.9498 175.845 24.4164 176.995 23.1497C178.162 21.883 179.595 21.2496 181.295 21.2496C182.145 21.2496 182.929 21.4413 183.645 21.8246C184.362 22.1913 184.912 22.6413 185.295 23.1747V15.2494H188.046V34H185.295V32.3249C184.912 32.8583 184.362 33.3166 183.645 33.7C182.929 34.0667 182.145 34.25 181.295 34.25ZM179.12 30.5999C179.82 31.3666 180.712 31.7499 181.795 31.7499C182.879 31.7499 183.77 31.3666 184.47 30.5999C185.17 29.8332 185.52 28.8832 185.52 27.7498C185.52 26.6164 185.17 25.6664 184.47 24.8997C183.77 24.133 182.879 23.7497 181.795 23.7497C180.712 23.7497 179.82 24.133 179.12 24.8997C178.42 25.6664 178.07 26.6164 178.07 27.7498C178.07 28.8832 178.42 29.8332 179.12 30.5999ZM195.771 39.2252H192.746L195.421 33.325L190.046 21.4996H193.071L196.896 30.3499L200.746 21.4996H203.797L195.771 39.2252Z" fill="#B5E6AC"/>
</svg>
