<svg width="50" height="50" viewBox="0 0 50 50" fill="none" xmlns="http://www.w3.org/2000/svg">
<path d="M13.8957 29.1665H8.33317C6.0415 29.1665 4.1665 31.0415 4.1665 33.3332V43.7498C4.1665 44.8957 5.104 45.8332 6.24984 45.8332H13.8957C15.0415 45.8332 15.979 44.8957 15.979 43.7498V31.2498C15.979 30.104 15.0415 29.1665 13.8957 29.1665Z" fill="#B5E6AC"/>
<path d="M27.7712 20.8335H22.2087C19.917 20.8335 18.042 22.7085 18.042 25.0002V43.7502C18.042 44.896 18.9795 45.8335 20.1253 45.8335H29.8545C31.0003 45.8335 31.9378 44.896 31.9378 43.7502V25.0002C31.9378 22.7085 30.0837 20.8335 27.7712 20.8335Z" fill="#B5E6AC"/>
<path d="M41.6668 35.4165H36.1043C34.9585 35.4165 34.021 36.354 34.021 37.4998V43.7498C34.021 44.8957 34.9585 45.8332 36.1043 45.8332H43.7502C44.896 45.8332 45.8335 44.8957 45.8335 43.7498V39.5832C45.8335 37.2915 43.9585 35.4165 41.6668 35.4165Z" fill="#B5E6AC"/>
<path d="M31.2707 10.1043C31.9165 9.4585 32.1665 8.68766 31.9582 8.021C31.7498 7.35433 31.104 6.87516 30.1873 6.72933L28.1873 6.396C28.104 6.396 27.9165 6.25016 27.8748 6.16683L26.7707 3.9585C25.9373 2.271 24.0415 2.271 23.2082 3.9585L22.104 6.16683C22.0832 6.25016 21.8957 6.396 21.8123 6.396L19.8123 6.72933C18.8957 6.87516 18.2707 7.35433 18.0415 8.021C17.8332 8.68766 18.0832 9.4585 18.729 10.1043L20.2707 11.6668C20.354 11.7293 20.4165 11.9793 20.3957 12.0627L19.9582 13.9793C19.6248 15.4168 20.1665 16.0627 20.5207 16.3127C20.8748 16.5627 21.6457 16.896 22.9165 16.146L24.7915 15.0418C24.8748 14.9793 25.1457 14.9793 25.229 15.0418L27.0832 16.146C27.6665 16.5002 28.1457 16.6043 28.5207 16.6043C28.9582 16.6043 29.2707 16.4377 29.4582 16.3127C29.8123 16.0627 30.354 15.4168 30.0207 13.9793L29.5832 12.0627C29.5623 11.9585 29.6248 11.7293 29.7082 11.6668L31.2707 10.1043Z" fill="#B5E6AC"/>
</svg>
